HIERARCHY
ROOT Hips
{
	OFFSET 0.000000 0.000000 0.000000 
	CHANNELS 6 Xposition Yposition Zposition Yrotation Zrotation Xrotation 
	JOINT Lumbar
	{
		OFFSET 0.000000 0.000000 0.000000 
		CHANNELS 3 Zrotation Xrotation Yrotation
		JOINT Neck
		{
			OFFSET 0.000000 0.445665 0.000000 
			CHANNELS 3 Zrotation Xrotation Yrotation
			End Site
			{
				OFFSET 0.000000 0.227535 0.000000 
			}
		}
		JOINT RightShoulder
		{
			OFFSET 0.019635 0.377685 0.194865 
			CHANNELS 3 Zrotation Xrotation Yrotation
			JOINT RightElbow
			{
				OFFSET 0.000000 -0.243375 0.000000 
				CHANNELS 2 Zrotation Yrotation
				JOINT RightWrist
				{
					OFFSET 0.000000 -0.264825 0.000000 
					CHANNELS 2 Zrotation Xrotation
					End Site
					{
						OFFSET 0.006600 -0.176220 0.000990 
					}
				}
			}
		}
		JOINT LeftShoulder
		{
			OFFSET 0.019635 0.377685 -0.194865 
			CHANNELS 3 Zrotation Xrotation Yrotation
			JOINT LeftElbow
			{
				OFFSET 0.000000 -0.243375 0.000000 
				CHANNELS 2 Zrotation Yrotation
				JOINT LeftWrist
				{
					OFFSET 0.000000 -0.264825 0.000000 
					CHANNELS 2 Zrotation Xrotation
					End Site
					{
						OFFSET 0.006600 -0.176220 -0.000990 
					}
				}
			}
		}
	}
	JOINT RightHip
	{
		OFFSET 0.052140 -0.069960 0.075570 
		CHANNELS 3 Zrotation Xrotation Yrotation
		JOINT RightKnee
		{
			OFFSET 0.000000 -0.402270 0.000000 
			CHANNELS 1 Zrotation
			JOINT RightAnkle
			{
				OFFSET 0.000000 -0.404085 0.000000 
				CHANNELS 3 Zrotation Xrotation Yrotation
				End Site
				{
					OFFSET 0.204105 -0.089430 0.008415 
				}
			}
		}
	}
	JOINT LeftHip
	{
		OFFSET 0.052140 -0.069960 -0.075570 
		CHANNELS 3 Zrotation Xrotation Yrotation
		JOINT LeftKnee
		{
			OFFSET 0.000000 -0.402270 0.000000 
			CHANNELS 1 Zrotation
			JOINT LeftAnkle
			{
				OFFSET 0.000000 -0.404085 0.000000 
				CHANNELS 3 Zrotation Xrotation Yrotation
				End Site
				{
					OFFSET 0.204105 -0.089430 -0.008415 
				}
			}
		}
	}
}
MOTION
Frames: 29
Frame Time: 0.02
-0 0.95578 0 176.7579 0 -3.39885 4.1399 5.0921 -2.14838 -25.03968 6.16628 6.53178 -13.3829 -76.80835 -87.14686 20.42582 67.16277 -44.587 -1.50777 21.62355 65.60751 68.32069 21.4228 -87.7637 -29.92285 3.79401 -3.57379 4.73744 -9.76992 -8.69929 1.83774 -4.11757 -9.70594 -2.56892 4.11643 1.61951 -7.88504 6.30863 5.35035 9.29031
0.00048 0.95577 -0.00013 176.76038 0 -3.41122 4.14104 5.09157 -2.11474 -25.16174 6.16516 6.53607 -13.05233 -76.80544 -87.14687 20.46762 67.21293 -44.38942 -1.43271 22.00224 65.58871 68.12711 21.37305 -87.68863 -29.92146 3.79639 -3.54894 4.75979 -9.74528 -8.69548 1.83164 -4.1057 -9.72123 -2.5862 4.14018 1.61393 -7.79896 6.28615 5.33208 9.27465
0.00096 0.95576 -0.00025 176.76273 0 -3.42353 4.14227 5.09103 -2.08104 -25.28364 6.1633 6.53996 -12.72199 -76.80183 -87.14686 20.50953 67.25937 -44.19006 -1.35836 22.38026 65.57058 67.9327 21.32417 -87.61321 -29.91989 3.79856 -3.52411 4.78201 -9.72089 -8.69154 1.82553 -4.09393 -9.73627 -2.60335 4.16384 1.60883 -7.71308 6.26375 5.31383 9.25869
0.00145 0.95575 -0.00037 176.76489 0 -3.43572 4.14358 5.0904 -2.04761 -25.40496 6.16005 6.54299 -12.3836 -76.79652 -87.14687 20.55389 67.29875 -43.98707 -1.28832 22.75564 65.55364 67.7361 21.27873 -87.53518 -29.91791 3.79983 -3.49917 4.80395 -9.6976 -8.68725 1.81931 -4.08258 -9.75041 -2.62034 4.18738 1.60581 -7.62702 6.24146 5.29552 9.24096
0.00191 0.95574 -0.00051 176.76841 0 -3.44853 4.14414 5.09017 -2.01374 -25.52796 6.16605 6.55144 -12.08118 -76.80159 -87.14686 20.58716 67.3842 -43.80983 -1.19808 23.14061 65.52882 67.55476 21.21558 -87.47041 -29.91849 3.80575 -3.47489 4.8274 -9.6689 -8.68508 1.81368 -4.06918 -9.76929 -2.63846 4.2116 1.592 -7.54172 6.2186 5.27754 9.2321
0.00243 0.95573 -0.00062 176.76879 0 -3.46004 4.14652 5.08914 -1.98018 -25.64826 6.15121 6.54786 -11.70746 -76.78377 -87.14687 20.64259 67.36625 -43.57385 -1.14885 23.50788 65.52177 67.33881 21.18959 -87.37802 -29.91341 3.80192 -3.44917 4.84764 -9.65138 -8.67826 1.80681 -4.06001 -9.77814 -2.65397 4.23433 1.60086 -7.45506 6.19697 5.2589 9.20484
0.00313 0.9557 -0.00066 176.7624 0 -3.46803 4.15224 5.08556 -1.95218 -25.75635 6.08668 6.51413 -11.07568 -76.70693 -87.14689 20.77453 67.10466 -43.2007 -1.23157 23.80967 65.55618 67.03897 21.27246 -87.20047 -29.89396 3.76907 -3.4192 4.85916 -9.66791 -8.65919 1.79625 -4.06379 -9.75829 -2.66391 4.25365 1.67638 -7.3606 6.17813 5.23766 9.12109
0.00389 0.95567 -0.00067 176.75248 0 -3.4747 4.16013 5.08125 -1.92362 -25.86295 5.99951 6.46752 -10.37875 -76.60563 -87.14683 20.9267 66.73322 -42.76331 -1.35281 24.0968 65.60991 66.70185 21.3918 -86.99621 -29.86854 3.72667 -3.38778 4.86743 -9.69516 -8.63528 1.78446 -4.07165 -9.72848 -2.67089 4.27136 1.77417 -7.26541 6.16061 5.21587 9.01969
0.00463 0.95564 -0.00069 176.74289 0 -3.48195 4.16811 5.0775 -1.89223 -25.9732 5.91758 6.42494 -9.75534 -76.51329 -87.14692 21.05915 66.38118 -42.33839 -1.44378 24.40211 65.65991 66.37356 21.49047 -86.81005 -29.84495 3.69006 -3.35713 4.87712 -9.71544 -8.61317 1.7734 -4.07678 -9.70383 -2.67817 4.28937 1.85921 -7.17306 6.14282 5.19478 8.93
0.00537 0.95561 -0.00072 176.73865 0 -3.48929 4.17151 5.07273 -1.87385 -26.06995 5.85725 6.39065 -8.9619 -76.43202 -87.14689 21.23384 66.14754 -41.98371 -1.58673 24.6596 65.6889 66.07888 21.60633 -86.59981 -29.825 3.6476 -3.32599 4.88709 -9.74453 -8.59279 1.76166 -4.08547 -9.67644 -2.68992 4.3092 1.95522 -7.0701 6.12361 5.17174 8.82488
0.00612 0.95558 -0.00073 176.72247 0 -3.49611 4.185 5.06996 -1.82825 -26.19565 5.74618 6.33531 -8.48801 -76.3194 -87.14665 21.3281 65.6543 -41.46796 -1.63292 25.01212 65.76586 65.70619 21.69514 -86.43204 -29.79616 3.61471 -3.29554 4.89567 -9.75789 -8.56764 1.751 -4.0879 -9.65246 -2.69159 4.32484 2.0338 -6.98911 6.10771 5.1527 8.74754
0.00684 0.95555 -0.00068 176.67357 0 -3.50191 4.22533 5.07258 -1.70761 -26.39138 5.50366 6.23132 -9.07718 -76.146 -87.14742 21.17199 64.36096 -40.51855 -1.38276 25.6392 65.97206 65.11882 21.70009 -86.4 -29.74433 3.61371 -3.26718 4.90128 -9.72454 -8.53083 1.744 -4.0705 -9.63985 -2.6665 4.32936 2.05752 -6.96877 6.10035 5.14436 8.75258
0.00756 0.95553 -0.00061 176.61282 0 -3.50722 4.2757 5.07729 -1.55972 -26.61808 5.21029 6.10554 -9.9603 -75.93724 -87.14615 20.93874 62.83217 -39.40997 -1.03783 26.36009 66.22437 64.4552 21.67693 -86.40966 -29.68434 3.62219 -3.2395 4.90555 -9.67508 -8.48944 1.73811 -4.04694 -9.63111 -2.63125 4.32969 2.06317 -6.97071 6.09637 5.14017 8.78595
0.00828 0.95551 -0.00055 176.55793 0 -3.51271 4.32196 5.08123 -1.42415 -26.83754 4.93811 5.98543 -10.59968 -75.73289 -87.14673 20.75591 61.48156 -38.37746 -0.74896 27.03331 66.45616 63.83274 21.66637 -86.39213 -29.62724 3.62418 -3.21173 4.91038 -9.63348 -8.44979 1.7314 -4.02723 -9.62091 -2.60052 4.33189 2.07791 -6.96249 6.09096 5.13435 8.80541
0.00901 0.95548 -0.0005 176.50109 0 -3.5183 4.36693 5.08436 -1.2883 -27.0287 4.67317 5.88222 -11.69817 -75.58082 -87.14973 20.50829 59.82065 -37.32751 -0.40564 27.73024 66.69185 63.18397 21.65645 -86.40748 -29.57088 3.63467 -3.18335 4.9154 -9.59014 -8.41095 1.72575 -4.00326 -9.6091 -2.57035 4.33421 2.08967 -6.95403 6.08497 5.12737 8.8285
0.00973 0.95545 -0.00042 176.44532 0 -3.52359 4.41628 5.08971 -1.1472 -27.28541 4.38146 5.73947 -11.91564 -75.30684 -87.1393 20.37784 58.75906 -36.27623 -0.15388 28.39658 66.92377 62.56928 21.63976 -86.36581 -29.51425 3.63028 -3.15597 4.91966 -9.54625 -8.37 1.71845 -3.98664 -9.60171 -2.53632 4.33526 2.1031 -6.95183 6.08122 5.12388 8.85114
0.01046 0.95542 -0.00029 176.39748 0 -3.52817 4.48061 5.10037 -0.99287 -27.72185 4.02771 5.48725 -9.58986 -74.74595 -87.15685 20.58122 59.34694 -35.26629 -0.16824 28.98821 67.18562 62.09256 21.59479 -86.14776 -29.42826 3.579 -3.13511 4.92288 -9.5065 -8.31924 1.70405 -3.99203 -9.60556 -2.49688 4.33416 2.12483 -6.95748 6.0808 5.12824 8.86433
0.0112 0.95537 -0.00014 176.35085 0 -3.53244 4.5479 5.11318 -0.83517 -28.22178 3.6492 5.19716 -6.37563 -74.05524 -87.14687 20.90545 60.55824 -34.25968 -0.27976 29.54067 67.43059 61.64732 21.54578 -85.8738 -29.34528 3.5133 -3.11446 4.92526 -9.4664 -8.26755 1.6885 -4.00501 -9.61382 -2.45333 4.33188 2.14879 -6.96949 6.083 5.13616 8.87641
0.01194 0.95533 0 176.30221 0 -3.53687 4.61043 5.12533 -0.68258 -28.68885 3.28221 4.92807 -3.59274 -73.39814 -87.10974 21.18149 61.5263 -33.24791 -0.35297 30.08857 67.65156 61.17254 21.51065 -85.62987 -29.28447 3.45632 -3.09124 4.92759 -9.42521 -8.21959 1.67481 -4.01429 -9.62005 -2.40999 4.32993 2.17218 -6.98109 6.0852 5.14289 8.88991
0.01264 0.95529 0.00014 176.25894 0 -3.54126 4.68808 5.13657 -0.51405 -29.17495 2.91139 4.64197 -0.70032 -72.8502 -87.24831 21.43155 62.31768 -32.24597 -0.39782 30.7305 68.01504 60.76326 21.42823 -85.36321 -29.13522 3.38979 -3.07871 4.93174 -9.38857 -8.15726 1.65498 -4.02423 -9.62631 -2.37366 4.32871 2.19342 -6.98265 6.08207 5.14775 8.90052
0.01344 0.95523 0.0003 176.20541 0 -3.54561 4.73438 5.14976 -0.37815 -29.6348 2.54449 4.3829 2.17463 -72.04046 -87.00399 21.75898 63.62721 -31.22637 -0.52657 31.1706 68.06809 60.22118 21.43803 -85.1359 -29.15692 3.34053 -3.0437 4.93188 -9.3428 -8.12501 1.64832 -4.03494 -9.63376 -2.32142 4.32573 2.21946 -7.00676 6.09116 5.15757 8.91651
0.01447 0.95512 0.00051 176.11917 0 -3.55053 4.69682 5.17133 -0.33443 -30.01612 2.18491 4.20535 4.82006 -70.57356 -85.79562 22.32527 66.21987 -30.1563 -0.85867 31.02252 67.3431 59.34296 21.75148 -84.97619 -29.76948 3.3339 -2.94878 4.92148 -9.27012 -8.17355 1.6724 -4.04359 -9.64134 -2.23047 4.31848 2.26213 -7.0877 6.12868 5.17766 8.94729
0.0156 0.95498 0.00074 176.02337 0 -3.55534 4.62678 5.19408 -0.32354 -30.36607 1.8323 4.05698 7.4114 -68.84095 -84.1852 22.95483 69.30887 -29.06767 -1.27272 30.67905 66.2912 58.32087 22.14849 -84.86476 -30.53097 3.34619 -2.83077 4.90706 -9.18863 -8.25293 1.71078 -4.05319 -9.65037 -2.12297 4.30952 2.30903 -7.19159 6.17918 5.20297 8.98326
0.01671 0.95484 0.00096 175.93469 0 -3.55978 4.56951 5.214 -0.29698 -30.72503 1.48287 3.8968 10.00601 -67.20856 -82.70408 23.52064 72.17361 -27.99105 -1.65332 30.45195 65.34062 57.34299 22.47661 -84.77106 -31.1468 3.35604 -2.72194 4.89423 -9.11247 -8.31975 1.74657 -4.06395 -9.66004 -2.02024 4.30111 2.35133 -7.28759 6.22689 5.22767 9.01713
0.01774 0.95475 0.00118 175.83435 0 -3.56586 4.52139 5.24384 -0.27357 -31.11176 1.10524 3.72872 12.72373 -65.66052 -81.45377 24.24075 75.07048 -26.90614 -2.02315 30.11 64.59244 56.46537 22.93739 -84.52135 -32.09486 3.34148 -2.61886 4.88223 -9.03088 -8.38015 1.76617 -4.06836 -9.66426 -1.92872 4.29341 2.40446 -7.37368 6.26192 5.24544 9.05058
0.01895 0.95455 0.0014 175.75597 0 -3.56865 4.44566 5.25309 -0.25131 -31.42814 0.78896 3.58506 15.15772 -63.87263 -79.61976 24.64997 77.99007 -25.82555 -2.43125 29.95775 63.3409 55.33206 23.13887 -84.59196 -32.38258 3.37984 -2.49809 4.86772 -8.95826 -8.46155 1.82244 -4.08599 -9.68026 -1.81031 4.2841 2.43671 -7.48505 6.32597 5.27836 9.08528
0.02065 0.95403 0.00164 175.74091 0 -3.56127 4.30865 5.20681 -0.22496 -31.59307 0.63519 3.49683 16.84091 -61.51287 -76.32945 24.21372 81.02717 -24.83941 -2.94649 30.40762 60.8182 53.62128 22.63244 -85.68815 -30.84631 3.58468 -2.33598 4.84588 -8.91461 -8.59081 1.98043 -4.14107 -9.72697 -1.61884 4.26858 2.40418 -7.66665 6.47054 5.35594 9.12966
0.02253 0.9534 0.00189 175.74805 0 -3.55079 4.14369 5.1396 -0.19819 -31.68109 0.54397 3.43299 18.2313 -58.91786 -72.44871 23.45917 84.03833 -23.84711 -3.49396 31.04924 57.79462 51.63273 21.85965 -87.08254 -28.63707 3.83929 -2.15656 4.8219 -8.87985 -8.74053 2.17396 -4.20911 -9.78565 -1.40155 4.25189 2.35163 -7.87164 6.64306 5.44777 9.17384
0.02434 0.95283 0.00213 175.74497 0 -3.54242 3.9869 5.08074 -0.17156 -31.78135 0.42772 3.36169 19.73983 -56.41325 -68.80908 22.82773 86.93718 -22.80216 -4.01076 31.58376 54.97297 49.71988 21.18659 -88.23313 -26.70801 4.05256 -1.98378 4.79984 -8.83974 -8.88274 2.34887 -4.27046 -9.83988 -1.19785 4.23724 2.31218 -8.0621 6.80064 5.5304 9.213
